<?xml version="1.0" encoding="UTF-8"?><svg id="Layer_1" xmlns="http://www.w3.org/2000/svg" viewBox="0 0 150.65 165.13"><defs><style>.cls-1{fill:#474748;stroke-width:0px;}</style></defs><polygon class="cls-1" points="100.24 40.63 100.24 45.63 121.77 45.63 121.77 135.92 100.24 135.92 100.24 140.92 126.78 140.92 126.78 40.63 100.24 40.63"/><polygon class="cls-1" points="59.72 135.92 36.89 135.92 36.89 45.63 59.72 45.63 59.72 40.63 31.89 40.63 31.89 140.92 59.72 140.92 59.72 135.92"/><path class="cls-1" d="M100.84,140.92h-43.02V40.63h43.02v100.29ZM62.83,135.92h33.01V45.63h-33.01v90.28Z"/><rect class="cls-1" x="34.39" y="108.95" width="89.89" height="11.3"/><path class="cls-1" d="M126.78,122.75H31.89v-16.3h94.89v16.3ZM36.89,117.74h84.88v-6.29H36.89v6.29Z"/><rect class="cls-1" x="34.39" y="60.06" width="89.89" height="11.3"/><path class="cls-1" d="M126.78,73.86H31.89v-16.3h94.89v16.3ZM36.89,68.86h84.88v-6.29H36.89v6.29Z"/><polygon class="cls-1" points="81.34 35.58 76.34 35.58 76.34 24.75 109.09 24.75 109.09 29.76 81.34 29.76 81.34 35.58"/><rect class="cls-1" x="115.74" y="24.75" width="5.97" height="5"/><rect class="cls-1" x="109.61" y="16.2" width="5" height="7.25"/><rect class="cls-1" x="109.61" y="31.06" width="5" height="7.25"/></svg>