<?xml version="1.0" encoding="UTF-8"?><svg id="Layer_1" xmlns="http://www.w3.org/2000/svg" viewBox="0 0 150.65 165.13"><defs><style>.cls-1{fill:#474748;stroke-width:0px;}</style></defs><path class="cls-1" d="M94.6,29.06h-57.68v48.8h5v-44.52h47.55v31.71h37.28v74.48H41.93v-39.53h-5v43.81h94.84V62.16l-37.16-33.1ZM94.49,35.15l28.77,25.63h-28.77v-25.63Z"/><polygon class="cls-1" points="28.87 75.98 24.95 72.88 11.18 90.28 25.04 105.93 28.78 102.61 20 92.69 62.91 92.69 62.91 87.69 19.61 87.69 28.87 75.98"/><path class="cls-1" d="M24.74,71.12l5.89,4.66-8.44,10.66h41.97v7.51H22.78l7.78,8.78-5.62,4.98-15.38-17.37,15.2-19.21ZM27.12,76.19l-1.96-1.55-12.34,15.6,12.33,13.93,1.87-1.66-9.8-11.06h44.45v-2.5H17.02l10.09-12.75Z"/></svg>