<?xml version="1.0" encoding="UTF-8"?><svg id="Layer_1" xmlns="http://www.w3.org/2000/svg" viewBox="0 0 150.65 165.13"><defs><style>.cls-1{fill:#474748;stroke-width:0px;}</style></defs><polygon class="cls-1" points="31.89 142.99 57.22 142.99 57.22 147.65 100.24 147.65 100.24 142.99 126.78 142.99 126.78 124.81 31.89 124.81 31.89 142.99"/><rect class="cls-1" x="31.89" y="75.93" width="94.89" height="32.58"/><polygon class="cls-1" points="100.24 42.7 100.24 35.14 57.22 35.14 57.22 42.7 31.89 42.7 31.89 59.63 126.78 59.63 126.78 42.7 100.24 42.7"/><polygon class="cls-1" points="81.34 37.64 76.34 37.64 76.34 26.82 109.09 26.82 109.09 31.82 81.34 31.82 81.34 37.64"/><rect class="cls-1" x="115.74" y="26.82" width="5.97" height="5"/><rect class="cls-1" x="109.61" y="18.26" width="5" height="7.25"/><rect class="cls-1" x="109.61" y="33.12" width="5" height="7.25"/><rect class="cls-1" x="57.22" y="56.17" width="5" height="86.76"/><rect class="cls-1" x="31.89" y="56.17" width="5" height="86.76"/><rect class="cls-1" x="121.77" y="56.17" width="5" height="86.76"/><rect class="cls-1" x="97.74" y="56.17" width="5" height="86.76"/></svg>