<?xml version="1.0" encoding="UTF-8"?><svg id="Layer_1" xmlns="http://www.w3.org/2000/svg" viewBox="0 0 150.65 165.13"><defs><style>.cls-1{fill:#474748;stroke-width:0px;}</style></defs><path class="cls-1" d="M90.6,30.7h-57.68v50.59h12.42l-1.78-2.55,9.26-7.85,19.97,20.05-19.52,22.71-9.89-7.9,2.71-3.29h-13.17v43.01h94.84V63.8l-37.16-33.1ZM90.48,62.41v-25.63l28.77,25.63h-28.77Z"/><polygon class="cls-1" points="48.82 105.65 52.74 108.75 66.51 91.35 52.65 75.7 48.9 79.02 57.69 88.94 14.78 88.94 14.78 93.94 58.08 93.94 48.82 105.65"/><path class="cls-1" d="M52.94,110.51l-5.89-4.66,8.44-10.66H13.52v-7.51h41.39l-7.78-8.78,5.62-4.98,15.38,17.37-15.2,19.21ZM50.57,105.44l1.96,1.55,12.34-15.6-12.33-13.93-1.87,1.66,9.8,11.06H16.03v2.5h44.64l-10.09,12.75Z"/></svg>