<?xml version="1.0" encoding="UTF-8"?><svg id="Layer_1" xmlns="http://www.w3.org/2000/svg" viewBox="0 0 150.65 165.13"><defs><style>.cls-1{fill:#474748;stroke-width:0px;}</style></defs><path class="cls-1" d="M93.77,26.09h-57.68v48.8h5V30.38h47.55v31.71h37.28v74.48H41.1v-39.53h-5v43.81h94.84V59.2l-37.16-33.1ZM93.65,32.18l28.77,25.63h-28.77v-25.63Z"/><polygon class="cls-1" points="56.8 99.87 60.72 102.97 74.5 85.57 60.64 69.92 56.89 73.24 65.68 83.16 22.76 83.16 22.76 88.16 66.06 88.16 56.8 99.87"/><path class="cls-1" d="M60.93,104.73l-5.89-4.66,8.44-10.66H21.51v-7.51h41.39l-7.78-8.78,5.62-4.98,15.38,17.37-15.2,19.21ZM58.56,99.66l1.96,1.55,12.34-15.6-12.33-13.93-1.87,1.66,9.8,11.06H24.01v2.5h44.64l-10.09,12.75Z"/></svg>